<?xml version="1.0" standalone="no"?>
<!DOCTYPE svg PUBLIC "-//W3C//DTD SVG 20010904//EN"
 "http://www.w3.org/TR/2001/REC-SVG-20010904/DTD/svg10.dtd">
<svg version="1.0" xmlns="http://www.w3.org/2000/svg"
 width="400.000000pt" height="400.000000pt" viewBox="0 0 400.000000 400.000000"
 preserveAspectRatio="xMidYMid meet">
<metadata>
Created by potrace 1.11, written by Peter Selinger 2001-2013
</metadata>
<g transform="translate(0.000000,400.000000) scale(0.100000,-0.100000)"
fill="#000000" stroke="none">
<path d="M1355 3653 c-162 -36 -297 -165 -339 -324 -9 -32 -13 -88 -12 -139 4
-114 49 -214 133 -298 92 -92 178 -126 345 -136 169 -11 283 -50 414 -142 367
-259 420 -793 112 -1129 -136 -148 -315 -229 -531 -241 -124 -7 -211 -34 -284
-87 -170 -126 -235 -337 -163 -531 26 -70 123 -196 150 -196 6 0 10 -4 10 -8
0 -15 124 -70 179 -80 86 -16 265 -5 406 23 388 79 713 273 964 575 94 113
196 279 245 400 10 25 25 59 32 75 22 51 64 205 81 295 20 110 25 408 8 515
-22 139 -24 148 -54 251 -110 370 -346 689 -671 909 -204 138 -478 240 -727
270 -101 13 -239 12 -298 -2z"/>
<path d="M1390 2448 c-119 -15 -241 -91 -313 -196 -61 -88 -90 -239 -66 -347
27 -122 127 -253 235 -308 58 -30 180 -57 227 -51 17 2 49 6 70 9 107 15 240
109 300 215 47 81 60 126 63 214 8 287 -230 500 -516 464z"/>
</g>
</svg>
