<svg version="1" xmlns="http://www.w3.org/2000/svg" width="933.333" height="933.333" viewBox="0 0 700.000000 700.000000"><path d="M0 350v350.1l189.8-.4c104.3-.1 190.8-.6 192.2-.9 1.4-.4 5.6-.9 9.3-1.3 3.7-.3 7.8-.8 9-1.1 1.2-.2 3.8-.6 5.7-.9 1.9-.3 4.6-.7 6-1 1.4-.3 4.1-.8 6-1.1 9.4-1.5 30.9-7.3 45-12.1 18.8-6.4 47.3-19.2 61.4-27.8 3.2-1.9 6.2-3.5 6.7-3.5s.9-.5.9-1c0-.6.5-1 1-1 1.5 0 22-14.1 33-22.7 15.2-11.8 32.4-28 45-42.2 3.6-4.1 7-7.9 7.6-8.5.6-.6 4.8-6.1 9.4-12.1 15-19.7 27.7-40.5 38.3-62.8 2.6-5.3 4.7-9.9 4.7-10.2 0-.2 1.1-2.8 2.4-5.7 5.7-12.7 15.1-42.1 18.2-57.3 1.7-8.1 5.4-30.1 5.9-35 .4-3.3.9-7.1 1.1-8.5.9-4.7 1.1-52.5.4-60.5-1.6-16.9-2.2-22-2.5-22.5-.2-.3-.6-3-1-6s-2.2-12.3-4-20.5c-5.3-23.2-10.2-38.5-19.7-61-38.7-91.1-116-162.5-210.3-194.3-16.8-5.7-42-11.9-55.5-13.7-1.9-.3-4.6-.7-6-1-1.3-.2-5.2-.7-8.6-1.1-3.3-.3-7.4-.8-9-1.1-1.6-.3-88.3-.8-192.6-1L0-.1V350zm373.4-173.4c38.7 5.4 72.2 22.1 100.2 49.9 27.8 27.5 44 60.6 50 101.5 1 6.8 1 36.6 0 44-3.2 23.8-12.7 51.1-23.6 68-1.7 2.5-3.3 5.2-3.7 6-3.6 7.6-23.8 29.9-36.1 39.9-11.9 9.7-34.4 23-43.2 25.6-1.4.4-2.9 1.1-3.5 1.5-3.2 2.4-25.7 8.2-41 10.7-13.3 2.1-46.1.4-61-3-26.2-6.2-50.6-18-71.5-34.6-12.9-10.2-29.3-28.8-38.2-43.1-8.5-13.6-18.5-36.7-21.4-49.5-3.9-17-4.9-26-4.9-44.5.1-16.6.4-20 3.1-34 8.1-42.7 34.7-82.8 72.4-109.2 9.2-6.5 25.9-15.5 32-17.3 1.4-.4 3-1.1 3.5-1.5 3.2-2.6 30.2-9.3 42-10.6 3.3-.3 6.1-.7 6.3-.9.9-.9 30.4 0 38.6 1.1z"/></svg>